<?xml version="1.0" encoding="utf-8"?>
<!-- Generator: Adobe Illustrator 28.3.0, SVG Export Plug-In . SVG Version: 6.00 Build 0)  -->
<svg version="1.1" id="Layer_1" xmlns="http://www.w3.org/2000/svg" xmlns:xlink="http://www.w3.org/1999/xlink" x="0px" y="0px"
	 viewBox="0 0 277.7 66.8" style="enable-background:new 0 0 277.7 66.8;" xml:space="preserve">
<style type="text/css">
	.st0{fill:none;}
	.st1{fill:#1A475C;}
	.st2{fill:#7CA2A6;}
</style>
<g>
	<path class="st0" d="M114.6,47.7c-0.4-0.4-0.9-0.6-1.5-0.8c-0.5-0.1-1.3-0.2-2.7-0.2h-1.5v10.7h2.4c0.9,0,1.6-0.1,2-0.2
		c0.5-0.1,1-0.4,1.3-0.7c0.3-0.3,0.6-0.8,0.9-1.6c0.2-0.7,0.3-1.7,0.3-2.9s-0.1-2.2-0.3-2.9C115.3,48.6,115,48.1,114.6,47.7z"/>
	<path class="st0" d="M205.1,11.8c-2.4,0-4.3,0.9-5.7,2.6c-1.4,1.7-2.2,4.4-2.2,7.9c0,3.4,0.7,6.1,2.2,7.8c1.5,1.8,3.4,2.7,5.6,2.7
		c2.3,0,4.1-0.9,5.6-2.6c1.5-1.8,2.2-4.4,2.2-7.9c0-3.5-0.7-6.1-2.1-7.8C209.3,12.7,207.5,11.8,205.1,11.8z"/>
	<path class="st0" d="M179.4,16c0-1-0.3-1.9-0.8-2.5c-0.5-0.6-1.3-1-2.3-1.2c-0.5-0.1-2-0.1-4.5-0.1H167V20h4.5
		c2.9,0,4.8-0.1,5.5-0.4c0.7-0.2,1.3-0.7,1.7-1.3C179.2,17.7,179.4,17,179.4,16z"/>
	<rect x="11.5" y="16.9" class="st0" width="19.2" height="10.3"/>
	<rect x="43" y="39.6" class="st0" width="3.2" height="9.6"/>
	<path class="st1" d="M7.8,49.2L0,61.9h30.8V49.2h-0.5H7.8z M132.7,12.3h9v25.3h6.1V12.3h9V7.1h-24.2V12.3z M183.8,21.3
		c1.3-1.5,2-3.4,2-5.7c0-1.8-0.4-3.4-1.3-4.8c-0.9-1.4-2.1-2.4-3.5-2.9c-1.5-0.5-3.8-0.8-7.1-0.8h-12.9v30.4h6.1V24.8h5.1
		c2.2,3.1,8.8,12.7,8.8,12.7h7.4l-9.5-13.9C178.7,23.7,182.4,22.8,183.8,21.3z M177.1,19.6c-0.7,0.2-2.6,0.4-5.5,0.4H167v-7.7h4.8
		c2.5,0,4,0,4.5,0.1c1,0.2,1.8,0.6,2.3,1.2c0.5,0.6,0.8,1.5,0.8,2.5c0,0.9-0.2,1.7-0.6,2.3C178.4,18.9,177.8,19.4,177.1,19.6z
		 M205,6.6c-2.3,0-4.3,0.4-6.1,1.2c-1.3,0.6-2.5,1.5-3.7,2.7c-1.1,1.2-2,2.6-2.6,4.2c-0.9,2.1-1.3,4.7-1.3,7.8
		c0,4.8,1.2,8.6,3.7,11.4c2.5,2.8,5.8,4.1,10,4.1c4.2,0,7.5-1.4,10-4.2c2.5-2.8,3.7-6.6,3.7-11.5c0-5-1.3-8.8-3.8-11.6
		C212.5,8,209.2,6.6,205,6.6z M210.7,30.2c-1.5,1.8-3.3,2.6-5.6,2.6c-2.3,0-4.2-0.9-5.6-2.7c-1.5-1.8-2.2-4.4-2.2-7.8
		c0-3.5,0.7-6.1,2.2-7.9c1.4-1.7,3.3-2.6,5.7-2.6c2.4,0,4.2,0.9,5.7,2.6c1.4,1.7,2.1,4.3,2.1,7.8C212.9,25.8,212.2,28.4,210.7,30.2z
		 M251.5,7.1h-8.3l-12.4,13.5V7.1h-6.1v30.4h6.1v-9.2l5-5.1l8.4,14.3h8L240.1,19L251.5,7.1z M277.7,12.3V7.1h-22.4v30.4h22.4v-5.1
		h-16.2v-8.3h13V19h-13v-6.7H277.7z M125.1,20.7c-1.4-0.8-3.6-1.5-6.6-2.2c-3-0.7-4.9-1.4-5.6-2c-0.6-0.5-0.9-1.1-0.9-1.8
		c0-0.8,0.3-1.4,1-1.9c1-0.7,2.4-1.1,4.2-1.1c1.7,0,3,0.3,3.9,1c0.9,0.7,1.4,1.8,1.7,3.4l0.3,0l5.3-3.4c-0.5-1.4-1.3-2.6-2.4-3.5
		c-1.9-1.7-4.8-2.5-8.6-2.5c-2.3,0-4.3,0.4-6,1.1c-1.7,0.7-2.9,1.7-3.8,3.1c-0.9,1.4-1.3,2.8-1.3,4.4c0,2.4,0.9,4.5,2.8,6.1
		c1.3,1.2,3.6,2.2,6.9,3c2.6,0.6,4.2,1.1,4.9,1.3c1.1,0.4,1.8,0.8,2.2,1.3c0.4,0.5,0.6,1.1,0.6,1.8c0,1.1-0.5,2.1-1.5,2.9
		c-1,0.8-2.5,1.3-4.5,1.3c-1.9,0-3.4-0.5-4.5-1.4c-1.1-0.9-1.8-2.4-2.2-4.4l-0.1,0l-5.2,3.8c0.6,1.9,1.6,3.4,3,4.5
		c2.1,1.8,5,2.7,8.9,2.7c2.6,0,4.9-0.4,6.6-1.1c1.8-0.7,3.1-1.9,4.1-3.4c1-1.5,1.5-3.2,1.5-4.9c0-1.9-0.4-3.5-1.2-4.8
		C127.7,22.5,126.6,21.5,125.1,20.7z M92.3,66.8h2.8V0h-2.8V66.8z M46.8,27.2h-0.6H43H30.8H11.5V16.9h19.2h9.7l0,0v0H43l8.6-12.1
		h-6.9L11,4.8c-5.5,0-11,5.4-11,10.2c0,0,0,0,0,0c0,0,0,12.2,0,12.2c0,6.6,5.8,12.4,11.7,12.4l19.1,0l12.3,0l3.2,0v9.6h12.3V38.8
		C58.5,32.4,53.3,27.2,46.8,27.2z"/>
	<path class="st2" d="M43,16.9h-2.6v0l0,0h-9.7v10.3H43V16.9z M117.1,45.9c-0.7-0.7-1.5-1.2-2.4-1.5c-0.7-0.2-1.7-0.3-3.1-0.3h-5.9
		v16.1h6.1c1.2,0,2.2-0.1,2.9-0.3c1-0.3,1.7-0.7,2.3-1.3c0.7-0.7,1.3-1.7,1.7-2.8c0.3-1,0.5-2.1,0.5-3.4c0-1.5-0.2-2.8-0.5-3.8
		C118.3,47.4,117.8,46.6,117.1,45.9z M115.5,55.1c-0.2,0.7-0.5,1.2-0.9,1.6c-0.3,0.3-0.8,0.5-1.3,0.7c-0.4,0.1-1.1,0.2-2,0.2h-2.4
		V46.8h1.5c1.3,0,2.2,0.1,2.7,0.2c0.6,0.1,1.1,0.4,1.5,0.8c0.4,0.4,0.7,0.9,0.9,1.6c0.2,0.7,0.3,1.6,0.3,2.9S115.7,54.4,115.5,55.1z
		 M186.1,46.6v-2.5h-11.8v2.7h7.5l-8.5,10.4v2.9h13.1v-2.7h-9.2L186.1,46.6z M207.6,60.2h3.2V44.1h-3.2V60.2z M241.7,54.8l-6.6-10.7
		H232v16.1h3V49.7l6.5,10.5h3.3V44.1h-3V54.8z M277.7,46.8v-2.7h-11.8v16.1h11.8v-2.7h-8.6v-4.4h6.3v-2.7h-6.3v-3.6H277.7z
		 M140.3,60.2h11.8v-2.7h-8.6v-4.4h6.3v-2.7h-6.3v-3.6h8.6v-2.7h-11.8V60.2z M70.2,4.8l-11.7,0l-8.6,12.1h16c2,0,3.6,1.6,3.6,3.6
		v25.1c0,2-1.6,3.6-3.6,3.6h-7.5H46.2H43v-9.6l-12.3,0v9.6v12.7h0.6h3.3H43v0c11.6,0,27.7,0,27.7,0c6,0,11-7.1,11-11.4V15.9
		C81.7,10.8,76.3,4.8,70.2,4.8z"/>
</g>
</svg>
