<svg xmlns="http://www.w3.org/2000/svg" viewBox="0 0 1975.66 1115.52"><defs><style>.cls-1{isolation:isolate;}.cls-2{fill:#c9c9c9;opacity:0.37;mix-blend-mode:multiply;}.cls-3{fill:none;stroke:#333;stroke-miterlimit:10;}.cls-4{fill:#333;}</style></defs><title>port_dodatok_1</title><g class="cls-1"><g id="Слой_2" data-name="Слой 2"><g id="Layer_3" data-name="Layer 3"><polygon class="cls-2" points="980.86 531.09 828.17 521.66 650.12 158.21 980.86 531.09"/><polygon class="cls-2" points="1191.33 257.15 1263.67 350.36 1067.05 274.38 1191.33 257.15"/><polygon class="cls-2" points="646.05 163.46 687.67 432.77 577.5 298.07 646.05 163.46"/><polygon class="cls-2" points="639.59 161.87 436.63 411.02 316.27 364.59 639.59 161.87"/><polygon class="cls-2" points="1942.87 609.47 1975.66 827.27 1782.38 707.85 1942.87 609.47"/><polygon class="cls-3" points="1472.74 720.32 1160.79 1075.46 1174.68 964.27 1472.74 720.32"/><polygon class="cls-2" points="1472.74 720.32 1160.79 1075.46 1235.37 725.25 1472.74 720.32"/><polygon class="cls-2" points="1472.74 720.32 1276.62 1035 1162.32 717.74 1472.74 720.32"/><polygon class="cls-2" points="1498.77 447.5 1472.74 720.32 1236.48 595.77 1498.77 447.5"/><polygon class="cls-2" points="1599.53 482.56 1236.48 595.77 1151.95 387.88 1599.53 482.56"/><line class="cls-3" x1="237.36" y1="408.06" x2="312.47" y2="363.79"/><line class="cls-3" x1="313.37" y1="359.53" x2="262.6" y2="257.42"/><line class="cls-3" x1="366.68" y1="290.12" x2="325.03" y2="354.58"/><line class="cls-3" x1="328.14" y1="367.1" x2="449.8" y2="410.49"/><line class="cls-3" x1="574.82" y1="302.17" x2="452.73" y2="408.67"/><line class="cls-3" x1="571.28" y1="293.45" x2="326.06" y2="362.22"/><line class="cls-3" x1="453.41" y1="413.95" x2="530.34" y2="470.42"/><line class="cls-3" x1="842.23" y1="368.54" x2="992.59" y2="525.81"/><line class="cls-3" x1="830.22" y1="522.09" x2="980.86" y2="531.07"/><line class="cls-3" x1="826.56" y1="518.14" x2="837.38" y2="369.47"/><line class="cls-3" x1="825.74" y1="519.29" x2="687.34" y2="436.88"/><line class="cls-3" x1="986.92" y1="599.87" x2="991.13" y2="533.6"/><line class="cls-3" x1="1014.42" y1="413.91" x2="994.92" y2="520.24"/><line class="cls-3" x1="997" y1="529.06" x2="1075.28" y2="556.86"/><polyline class="cls-3" points="1076.8 588.7 989.68 600.88 1076.87 558.12"/><line class="cls-3" x1="1078.72" y1="594.96" x2="1074.26" y2="672.6"/><line class="cls-3" x1="1073.83" y1="677.35" x2="1043.64" y2="760.81"/><line class="cls-3" x1="1076.06" y1="677.37" x2="1158.58" y2="716.36"/><line class="cls-3" x1="1050.02" y1="767.95" x2="1158.08" y2="719.48"/><line class="cls-3" x1="1081.05" y1="790.53" x2="1048.34" y2="775.91"/><line class="cls-3" x1="1372.62" y1="883.37" x2="1403.15" y2="864.24"/><line class="cls-3" x1="1462.17" y1="899.65" x2="1407.79" y2="864.25"/><line class="cls-3" x1="1462.49" y1="904.04" x2="1337.63" y2="1001.11"/><line class="cls-3" x1="1277.77" y1="1044.77" x2="1251.38" y2="957.4"/><line class="cls-3" x1="1175.59" y1="964.93" x2="1248.92" y2="954.77"/><line class="cls-3" x1="1255.88" y1="954.36" x2="1462.76" y2="901.76"/><line class="cls-3" x1="1368.46" y1="887.24" x2="1334.39" y2="999.35"/><line class="cls-3" x1="1272.6" y1="1051.49" x2="1165.52" y2="1074.66"/><line class="cls-3" x1="1174.44" y1="964.11" x2="1158.24" y2="1067.65"/><line class="cls-3" x1="1276.99" y1="1063.11" x2="1260.56" y2="1110.93"/><line class="cls-3" x1="1519.67" y1="449.61" x2="1573.44" y2="486.18"/><line class="cls-3" x1="1692.4" y1="543.55" x2="1543.95" y2="541.12"/><line class="cls-3" x1="1541.69" y1="539.1" x2="1573.75" y2="489.08"/><line class="cls-3" x1="1711.81" y1="543.16" x2="1790.67" y2="509.25"/><line class="cls-3" x1="1789.45" y1="504.99" x2="1575.74" y2="487.82"/><line class="cls-3" x1="1645.09" y1="618.48" x2="1702.87" y2="549.66"/><line class="cls-3" x1="1642.6" y1="615.58" x2="1576.07" y2="489.8"/><line class="cls-3" x1="1641.78" y1="616.73" x2="1332.53" y2="671.21"/><line class="cls-3" x1="1539.88" y1="540.42" x2="1505.65" y2="448.74"/><line class="cls-3" x1="1498.77" y1="447.5" x2="1255.23" y2="722.22"/><line class="cls-3" x1="1328.42" y1="670.88" x2="1236.48" y2="595.77"/><line class="cls-3" x1="1248.34" y1="713.57" x2="1235.39" y2="599.17"/><line class="cls-3" x1="1259.81" y1="723.19" x2="1472.74" y2="720.32"/><line class="cls-3" x1="1325.79" y1="673.34" x2="1260.54" y2="719.75"/><line class="cls-3" x1="1246.1" y1="724.16" x2="1162.32" y2="717.74"/><line class="cls-3" x1="1160.39" y1="715.04" x2="1234.08" y2="597.36"/><line class="cls-3" x1="687.67" y1="432.77" x2="647.33" y2="159.69"/><line class="cls-3" x1="642.89" y1="157.39" x2="323.52" y2="361.68"/><line class="cls-3" x1="838.62" y1="365.09" x2="649.14" y2="158.37"/><line class="cls-3" x1="585.16" y1="282.68" x2="644.2" y2="159.19"/><line class="cls-3" x1="588.81" y1="300.21" x2="683.76" y2="432.05"/><line class="cls-3" x1="684.55" y1="438.36" x2="456.44" y2="413.48"/><line class="cls-3" x1="1056.22" y1="264.06" x2="1029.61" y2="216.39"/><line class="cls-3" x1="116.16" y1="220.67" x2="4.93" y2="155.41"/><line class="cls-3" x1="1964.12" y1="831.93" x2="1785.46" y2="708.57"/><line class="cls-3" x1="1965.11" y1="831.76" x2="1855.2" y2="609.79"/><line class="cls-3" x1="1850.79" y1="611.64" x2="1785.26" y2="704.95"/><line class="cls-3" x1="1256.74" y1="737.71" x2="1298.86" y2="867.77"/><line class="cls-3" x1="1516.68" y1="809.51" x2="1696.44" y2="808.36"/><path class="cls-4" d="M1153.27,1059a17.76,17.76,0,1,1-8,23.8A17.75,17.75,0,0,1,1153.27,1059Z"/><path class="cls-4" d="M1692.12,534.32a17.76,17.76,0,1,1,1.19,25.08A17.75,17.75,0,0,1,1692.12,534.32Z"/><path class="cls-4" d="M1254.65,708a17.76,17.76,0,1,1-18.94,16.49A17.75,17.75,0,0,1,1254.65,708Z"/><path class="cls-4" d="M1509.72,424.8a17.76,17.76,0,1,1-18.94,16.49A17.76,17.76,0,0,1,1509.72,424.8Z"/><path class="cls-4" d="M1291.61,1039a17.76,17.76,0,1,1-25,1.74A17.75,17.75,0,0,1,1291.61,1039Z"/><path class="cls-4" d="M1472.67,890.31a17.76,17.76,0,1,1-25.06,1.74A17.76,17.76,0,0,1,1472.67,890.31Z"/><path class="cls-4" d="M1009.28,523.44a17.76,17.76,0,1,1-21.74-12.57A17.76,17.76,0,0,1,1009.28,523.44Z"/><path class="cls-4" d="M330.52,375.2a17.76,17.76,0,1,1-3.64-24.85A17.74,17.74,0,0,1,330.52,375.2Z"/><path class="cls-4" d="M702.36,447.17a17.76,17.76,0,1,1-3.63-24.85A17.74,17.74,0,0,1,702.36,447.17Z"/><path class="cls-4" d="M1053.8,784a17.75,17.75,0,1,1-3.62-24.84A17.74,17.74,0,0,1,1053.8,784Z"/><path class="cls-4" d="M584.43,282.05a12.11,12.11,0,1,1-15.45,7.4A12.11,12.11,0,0,1,584.43,282.05Z"/><path class="cls-4" d="M647.12,161.07a4.56,4.56,0,1,0-5.24-3.75A4.55,4.55,0,0,0,647.12,161.07Z"/><path class="cls-4" d="M686.48,440.4a4.56,4.56,0,1,0-5.25-3.75A4.55,4.55,0,0,0,686.48,440.4Z"/><path class="cls-4" d="M534.23,475.85a4.55,4.55,0,1,0-5.24-3.74A4.55,4.55,0,0,0,534.23,475.85Z"/><path class="cls-4" d="M454.35,416.15a4.56,4.56,0,1,0-5.24-3.75A4.55,4.55,0,0,0,454.35,416.15Z"/><path class="cls-4" d="M367.92,292.66a4.56,4.56,0,1,0-5.24-3.75A4.57,4.57,0,0,0,367.92,292.66Z"/><path class="cls-4" d="M263.54,262.37a4.56,4.56,0,1,0-5.24-3.75A4.56,4.56,0,0,0,263.54,262.37Z"/><path class="cls-4" d="M118.39,224.67a4.55,4.55,0,1,0-5.24-3.74A4.55,4.55,0,0,0,118.39,224.67Z"/><path class="cls-4" d="M196.18,143.82a4.56,4.56,0,1,0-5.24-3.75A4.56,4.56,0,0,0,196.18,143.82Z"/><path class="cls-4" d="M5.3,160.35a4.55,4.55,0,1,0-5.24-3.74A4.55,4.55,0,0,0,5.3,160.35Z"/><path class="cls-4" d="M237.84,412.62a4.56,4.56,0,1,0-5.24-3.74A4.56,4.56,0,0,0,237.84,412.62Z"/><path class="cls-4" d="M987.76,606.22a4.56,4.56,0,1,0-5.24-3.75A4.57,4.57,0,0,0,987.76,606.22Z"/><path class="cls-4" d="M1079.17,595.07a4.56,4.56,0,1,0-5.24-3.75A4.56,4.56,0,0,0,1079.17,595.07Z"/><path class="cls-4" d="M1075,679.9a4.56,4.56,0,1,0-5.24-3.75A4.57,4.57,0,0,0,1075,679.9Z"/><path class="cls-4" d="M1161.16,722.34a4.56,4.56,0,1,0-5.24-3.74A4.56,4.56,0,0,0,1161.16,722.34Z"/><path class="cls-4" d="M1082.06,795.31a4.56,4.56,0,1,0-5.24-3.75A4.56,4.56,0,0,0,1082.06,795.31Z"/><path class="cls-4" d="M1078.69,561.7a4.56,4.56,0,1,0-5.24-3.75A4.57,4.57,0,0,0,1078.69,561.7Z"/><path class="cls-4" d="M1237.32,601.21a4.56,4.56,0,1,0-5.24-3.75A4.57,4.57,0,0,0,1237.32,601.21Z"/><path class="cls-4" d="M1329.85,676a4.56,4.56,0,1,0-5.24-3.75A4.56,4.56,0,0,0,1329.85,676Z"/><path class="cls-4" d="M1465.4,905.92a4.56,4.56,0,1,0-5.24-3.75A4.57,4.57,0,0,0,1465.4,905.92Z"/><path class="cls-4" d="M1654.36,707.22a4.55,4.55,0,1,0-5.24-3.74A4.55,4.55,0,0,0,1654.36,707.22Z"/><path class="cls-4" d="M1643,218.46a4.56,4.56,0,1,0-5.24-3.74A4.55,4.55,0,0,0,1643,218.46Z"/><path class="cls-4" d="M1793.19,511.8a4.56,4.56,0,1,0-5.25-3.74A4.55,4.55,0,0,0,1793.19,511.8Z"/><path class="cls-4" d="M1645.19,621.57a4.56,4.56,0,1,0-5.24-3.75A4.55,4.55,0,0,0,1645.19,621.57Z"/><path class="cls-4" d="M1575,492.33a4.56,4.56,0,1,0-5.24-3.75A4.56,4.56,0,0,0,1575,492.33Z"/><path class="cls-4" d="M1541.31,545.58a4.56,4.56,0,1,0-5.24-3.75A4.55,4.55,0,0,0,1541.31,545.58Z"/><path class="cls-4" d="M1697.24,812.62a4.56,4.56,0,1,0-5.25-3.75A4.55,4.55,0,0,0,1697.24,812.62Z"/><path class="cls-4" d="M1517.05,814.2a4.56,4.56,0,1,0-5.24-3.75A4.55,4.55,0,0,0,1517.05,814.2Z"/><path class="cls-4" d="M1473.85,725.08a4.56,4.56,0,1,0-5.24-3.75A4.55,4.55,0,0,0,1473.85,725.08Z"/><path class="cls-4" d="M1301.18,875.45a4.56,4.56,0,1,0-5.24-3.75A4.56,4.56,0,0,0,1301.18,875.45Z"/><path class="cls-4" d="M1252.32,959.6a4.56,4.56,0,1,0-5.24-3.75A4.56,4.56,0,0,0,1252.32,959.6Z"/><path class="cls-4" d="M1260,1115.45a4.55,4.55,0,1,0-5.24-3.74A4.55,4.55,0,0,0,1260,1115.45Z"/><path class="cls-4" d="M1162.35,1083a8.57,8.57,0,1,0-9.85-7A8.55,8.55,0,0,0,1162.35,1083Z"/><path class="cls-4" d="M1174.89,969.44a4.56,4.56,0,1,0-5.25-3.75A4.55,4.55,0,0,0,1174.89,969.44Z"/><path class="cls-4" d="M1406.4,868.08a4.55,4.55,0,1,0-5.25-3.74A4.55,4.55,0,0,0,1406.4,868.08Z"/><path class="cls-4" d="M1371.37,889.12a4.56,4.56,0,1,0-5.24-3.75A4.57,4.57,0,0,0,1371.37,889.12Z"/><path class="cls-4" d="M1336,1005.5a4.56,4.56,0,1,0-5.24-3.75A4.55,4.55,0,0,0,1336,1005.5Z"/><path class="cls-4" d="M1216.48,494.18a4.56,4.56,0,1,0-5.24-3.75A4.57,4.57,0,0,0,1216.48,494.18Z"/><path class="cls-4" d="M1266.17,366.29a4.56,4.56,0,1,0-5.24-3.75A4.56,4.56,0,0,0,1266.17,366.29Z"/><path class="cls-4" d="M1015.12,417.17a4.56,4.56,0,1,0-5.24-3.75A4.55,4.55,0,0,0,1015.12,417.17Z"/><path class="cls-4" d="M841.36,372.06a4.56,4.56,0,1,0-5.24-3.75A4.55,4.55,0,0,0,841.36,372.06Z"/><path class="cls-4" d="M829.31,525.11a4.56,4.56,0,1,0-5.24-3.74A4.56,4.56,0,0,0,829.31,525.11Z"/><path class="cls-4" d="M1057.58,270.21a4.56,4.56,0,1,0-5.24-3.75A4.55,4.55,0,0,0,1057.58,270.21Z"/><path class="cls-4" d="M1030.15,221a4.55,4.55,0,1,0-5.25-3.74A4.54,4.54,0,0,0,1030.15,221Z"/><path class="cls-4" d="M843.6,550.11a4.56,4.56,0,1,0-5.24-3.75A4.56,4.56,0,0,0,843.6,550.11Z"/><path class="cls-4" d="M1853.68,615.44a4.56,4.56,0,1,0-5.25-3.74A4.55,4.55,0,0,0,1853.68,615.44Z"/><path class="cls-4" d="M1785.58,711.92a4.56,4.56,0,1,0-5.24-3.75A4.56,4.56,0,0,0,1785.58,711.92Z"/><path class="cls-4" d="M1966.71,837.91a4.55,4.55,0,1,0-5.25-3.74A4.55,4.55,0,0,0,1966.71,837.91Z"/><polygon class="cls-2" points="538.09 188.7 551.86 2.8 620.51 65.05 538.09 188.7"/><polygon class="cls-3" points="880.85 818.15 701.9 228.1 847.38 350.18 880.85 818.15"/><polygon class="cls-3" points="847.38 350.18 622.16 639.17 714.97 244.4 847.38 350.18"/><polygon class="cls-2" points="622.16 639.17 839.94 185.61 978.75 184.76 622.16 639.17"/><polygon class="cls-2" points="881.61 810.1 701.9 228.1 935.52 424 881.61 810.1"/><line class="cls-3" x1="702.57" y1="241.78" x2="617.5" y2="661.19"/><line class="cls-3" x1="715.79" y1="240.52" x2="848.94" y2="348.88"/><line class="cls-3" x1="718.69" y1="226.82" x2="855.57" y2="193.69"/><line class="cls-3" x1="849.92" y1="348.72" x2="859.29" y2="198.72"/><line class="cls-3" x1="857.21" y1="191.39" x2="812.02" y2="29.17"/><line class="cls-3" x1="845.32" y1="351.51" x2="781.71" y2="460.88"/><line class="cls-3" x1="780.5" y1="467.72" x2="729.34" y2="562.4"/><line class="cls-3" x1="627.39" y1="658.43" x2="725.23" y2="568.15"/><line class="cls-3" x1="633.34" y1="664.54" x2="703.98" y2="696.37"/><line class="cls-3" x1="618.95" y1="668.15" x2="631.63" y2="748.95"/><line class="cls-3" x1="948.99" y1="59" x2="860.33" y2="191.89"/><line class="cls-3" x1="730.16" y1="567.33" x2="877.81" y2="632.72"/><line class="cls-3" x1="878.26" y1="634.95" x2="708.09" y2="696.7"/><line class="cls-3" x1="833.85" y1="800.99" x2="709.57" y2="699.5"/><line class="cls-3" x1="607.42" y1="654.2" x2="505.58" y2="654.95"/><line class="cls-3" x1="582.2" y1="567.61" x2="620.29" y2="652.78"/><line class="cls-3" x1="582.87" y1="563.07" x2="724.58" y2="564.2"/><line class="cls-3" x1="633.76" y1="749.61" x2="703.65" y2="700.48"/><line class="cls-3" x1="779.36" y1="460.81" x2="709.78" y2="239.34"/><line class="cls-3" x1="614.96" y1="63.88" x2="554.76" y2="5.67"/><line class="cls-3" x1="549.79" y1="189.81" x2="549.74" y2="8.59"/><line class="cls-3" x1="549.8" y1="191.39" x2="616.08" y2="70.31"/><path class="cls-4" d="M637.19,649.24a17.76,17.76,0,1,1-23.81-8A17.76,17.76,0,0,1,637.19,649.24Z"/><path class="cls-4" d="M696.48,246.64A17.76,17.76,0,1,1,721.33,243,17.75,17.75,0,0,1,696.48,246.64Z"/><path class="cls-4" d="M605.13,81.38A17.76,17.76,0,1,1,630,77.75,17.74,17.74,0,0,1,605.13,81.38Z"/><path class="cls-4" d="M946.3,58.54A4.55,4.55,0,1,0,950,53.3,4.55,4.55,0,0,0,946.3,58.54Z"/><path class="cls-4" d="M854.51,195.46a4.56,4.56,0,1,0,3.75-5.25A4.55,4.55,0,0,0,854.51,195.46Z"/><path class="cls-4" d="M842.62,349.49a4.56,4.56,0,1,0,3.75-5.24A4.56,4.56,0,0,0,842.62,349.49Z"/><path class="cls-4" d="M775.67,465a4.56,4.56,0,1,0,3.75-5.24A4.56,4.56,0,0,0,775.67,465Z"/><path class="cls-4" d="M722.54,566.13a4.55,4.55,0,1,0,3.74-5.24A4.56,4.56,0,0,0,722.54,566.13Z"/><path class="cls-4" d="M829.64,801.75a4.56,4.56,0,1,0,3.75-5.24A4.57,4.57,0,0,0,829.64,801.75Z"/><path class="cls-4" d="M875.57,632.93a4.56,4.56,0,1,0,3.75-5.24A4.56,4.56,0,0,0,875.57,632.93Z"/><path class="cls-4" d="M702.1,699.29a4.56,4.56,0,1,0,3.75-5.25A4.56,4.56,0,0,0,702.1,699.29Z"/><path class="cls-4" d="M627.78,752.2a4.56,4.56,0,1,0,3.74-5.24A4.55,4.55,0,0,0,627.78,752.2Z"/><path class="cls-4" d="M499.25,656a4.56,4.56,0,1,0,3.75-5.24A4.55,4.55,0,0,0,499.25,656Z"/><path class="cls-4" d="M576.22,564.11a4.56,4.56,0,1,0,3.75-5.25A4.55,4.55,0,0,0,576.22,564.11Z"/><path class="cls-4" d="M807.72,29.89a4.55,4.55,0,1,0,3.74-5.24A4.56,4.56,0,0,0,807.72,29.89Z"/><path class="cls-4" d="M612.23,67.47A4.56,4.56,0,1,0,616,62.23,4.57,4.57,0,0,0,612.23,67.47Z"/><path class="cls-4" d="M547.15,5.3A4.56,4.56,0,1,0,550.9.06,4.56,4.56,0,0,0,547.15,5.3Z"/><path class="cls-4" d="M545.94,193.05a4.55,4.55,0,1,0,3.74-5.24A4.55,4.55,0,0,0,545.94,193.05Z"/></g></g></g></svg>